<svg width="648" height="515" viewBox="0 0 648 515" fill="none" xmlns="http://www.w3.org/2000/svg">
<rect x="4" y="98" width="640" height="412.61" stroke="#33FF00" stroke-width="8"/>
<rect x="602" y="157" width="20" height="12" fill="#33FF00"/>
<path d="M601 273H623V285H601V273Z" fill="#33FF00"/>
<rect x="527" y="351" width="62" height="124" fill="#33FF00"/>
<ellipse cx="612" cy="204.943" rx="9" ry="8.94235" fill="#33FF00"/>
<ellipse cx="612" cy="238.228" rx="9" ry="8.94235" fill="#33FF00"/>
<ellipse cx="612" cy="390.537" rx="9" ry="8.94235" stroke="#33FF00" stroke-width="8"/>
<ellipse cx="612" cy="428.739" rx="9" ry="8.94235" stroke="#33FF00" stroke-width="8"/>
<ellipse cx="558.026" cy="180.246" rx="26.0255" ry="25.8588" stroke="#33FF00" stroke-width="8"/>
<path d="M554 143H562V154.388H554V143Z" fill="#33FF00"/>
<path d="M536.762 237.281L543.702 233.3L549.417 243.135L542.478 247.116L536.762 237.281Z" fill="#33FF00"/>
<ellipse cx="558.026" cy="269.246" rx="26.0255" ry="25.8588" stroke="#33FF00" stroke-width="8"/>
<rect width="7.90422" height="116.861" transform="matrix(0.831422 0.555641 -0.591523 0.806288 401.126 1)" fill="#33FF00"/>
<rect width="7.90422" height="116.861" transform="matrix(0.831422 -0.555641 0.591523 0.806288 258 4.99976)" fill="#33FF00"/>
<rect x="30" y="126" width="473" height="357" fill="#33FF00" stroke="#33FF00" stroke-width="4"/>
</svg>
